PathFileType	4	(X/Y/Z)	Patient4_TMGait_0pt7_02_right_45.trc.trc
DataRate	CameraRate	NumFrames	NumMarkers	Units	OrigDataRate	OrigDataStartFrame	OrigNumFrames
90.322580645161	90.322580645161	5	33	mm	90.322580645161	18	       141
Frame#	Time	Sacral			L.Shoulder			Chest			R.Shoulder			Neck			R.ASIS			L.ASIS			R.Thigh.Superior			R.Thigh.Lateral			R.Thigh.Inferior			R.Patella			L.Thigh.Superior			L.Thigh.Lateral			L.Thigh.Inferior			L.Patella			L.Shank.Superior			L.Shank.Lateral			L.Shank.Inferior			R.Shank.Superior			R.Shank.Lateral			R.Shank.Inferior			R.Heel			R.Midfoot.Superior			R.Midfoot.Lateral			R.Toe			L.Heel			L.Midfoot.Lateral			L.Midfoot.Superior			L.Toe			L.Elbow			L.Wrist			R.Elbow			R.Wrist			
		X1	Y1	Z1	X2	Y2	Z2	X3	Y3	Z3	X4	Y4	Z4	X5	Y5	Z5	X6	Y6	Z6	X7	Y7	Z7	X8	Y8	Z8	X9	Y9	Z9	X10	Y10	Z10	X11	Y11	Z11	X12	Y12	Z12	X13	Y13	Z13	X14	Y14	Z14	X15	Y15	Z15	X16	Y16	Z16	X17	Y17	Z17	X18	Y18	Z18	X19	Y19	Z19	X20	Y20	Z20	X21	Y21	Z21	X22	Y22	Z22	X23	Y23	Z23	X24	Y24	Z24	X25	Y25	Z25	X26	Y26	Z26	X27	Y27	Z27	X28	Y28	Z28	X29	Y29	Z29	X30	Y30	Z30	X31	Y31	Z31	X32	Y32	Z32	X33	Y33	Z33	

18	51.158214285714	717.948290044728	1007.591366900400	423.668035795522	926.977393005836	1423.656394066602	240.218305475198	1015.997098565426	1353.178685025658	410.320698666827	924.302528059481	1437.548699734862	575.104892250196	917.726021616509	1488.738198707362	392.497252188534	935.155051231144	941.031660125743	557.825348888212	941.047972684089	955.455754354541	282.506611131936	1019.382837715336	780.251658372475	532.144523388500	987.057611912309	658.356482171117	609.918021296263	1078.585386546429	624.763731987240	531.380710456827	1118.000671628961	535.645086161009	555.741801625923	955.885788115771	734.401936183077	314.010202268354	851.005685209638	632.983889942184	247.171692785592	915.901701699192	543.084698418811	313.400912316367	903.402125927789	474.954716850647	323.437115317648	870.709926882659	406.590895959097	313.641118835702	770.657617016391	302.853226653576	258.664090119967	804.065854832469	187.409015541877	332.736436831230	1088.581320611198	445.153974110745	566.591556428960	1018.340027068112	341.540811336468	630.525707642644	1074.606089058927	245.662258038656	583.172350578192	958.923998402587	68.739666322751	557.538398543457	1126.271200246511	131.418574616608	600.710924970464	1041.307010901533	61.729161234103	632.032385799745	1245.994135903849	86.151201364616	629.783856697305	662.024356791505	38.850519405445	371.598484765973	736.408384134441	35.126848670662	291.698182226994	819.937091326887	95.204419836760	319.802695753585	948.253180764347	42.305543635341	291.911196947108	997.054619167263	1106.653365691475	83.644539878912	1240.096843922209	1035.822617135287	139.067967678723	799.499543532624	1115.658680215795	695.932016171788	776.995600363969	855.858131440820	717.521147188128	
19	51.169285714286	719.192522151148	1006.147459104389	425.073476887443	927.151191266541	1422.670550655764	242.115222334571	1016.235992466467	1352.220170586207	412.202745131398	924.289003067403	1436.586981394775	576.835528326216	917.654870476555	1487.552292210121	394.224914387975	936.159755274376	939.426358967776	559.658039233488	942.365248644619	954.384573918285	284.293727224745	1017.792195234401	775.819431374425	534.375294577378	982.785657482340	654.090859171383	611.470800616952	1074.256555151258	619.866440236653	533.152493654892	1112.649812055266	532.369704758716	556.627337844911	954.652580586691	732.707550601324	315.553813449115	848.467368180853	632.514727144742	248.010531259681	911.698869433710	541.826193212078	314.459737847733	898.372372931440	473.780375651836	324.239931319925	865.276915102397	405.659614458267	314.269470669187	764.460477334217	302.703797422682	259.069862457829	796.929133269282	186.931660129685	333.013950939139	1086.315897197473	441.921172449149	567.376899803698	1019.714878620417	335.274707833949	630.439097931883	1080.300896760369	241.782333578596	582.962878770942	971.835940406778	60.607170468518	556.118389788085	1137.115256754438	128.713293372657	599.685851616455	1054.493378947929	55.872665394380	630.512613600046	1258.543092032124	87.393494555265	628.394562827037	654.216938865277	38.744522076871	371.642899721736	728.585231954122	35.076346889033	291.752992549024	812.122032479437	95.128499524250	319.929883837755	940.414456284753	42.188557023699	291.952446248037	999.190256582255	1107.333656244648	84.497674871850	1244.288165371773	1049.878179551257	142.649924584908	794.094112665389	1118.004610103961	698.493492368785	765.361160572011	858.955118235597	719.494097804353	
20	51.180357142857	720.670513917281	1004.478118560317	426.781093651299	927.184183388139	1421.541214451171	244.153945080566	1016.478886241490	1351.216732496064	414.192031647447	924.290880582004	1435.537300060073	578.707621762642	917.513749752335	1486.239980386240	396.080718950740	937.475326200071	937.656724726919	561.588027888112	943.835904967931	953.197773948099	286.169571422033	1016.652047518711	771.317234435068	536.766309104090	978.717422973306	649.668819505136	612.868138266309	1070.324987414773	614.982010746432	534.934919785810	1107.383470187773	528.787536670119	557.302301144487	953.699247209888	730.913717863006	317.064363079713	846.173247554871	631.936096239656	248.970476432262	907.879560601243	540.477017100293	315.559757228129	893.772176148857	472.442434929915	325.087780104705	860.149637014977	404.600033760599	314.973312434936	758.441050572719	302.541008612766	259.555997788178	789.884097737704	186.391645360552	333.313794266082	1083.723463904053	438.370082779057	567.948255790431	1020.007073042979	329.297398355244	629.975247621662	1084.202440570829	237.943477507198	582.439757241139	981.619811384919	53.975118655028	554.382438695525	1145.258111668507	125.832274027453	598.248094278345	1064.392505177978	50.868034832179	628.730674810661	1267.846003505849	87.315855045358	626.687762208735	646.406399991998	38.604373283351	371.690474101810	720.777481256608	35.001835914124	291.817825456401	804.314880457103	95.040992515078	320.068755917012	932.606028029332	42.035306574721	291.981850601154	1000.981115988186	1107.713362428663	85.586383040676	1247.360615833171	1063.308799413664	146.284289562160	788.892491316924	1120.347711014435	701.215625554216	754.944698874868	861.973366506794	721.300462081877	
21	51.191428571429	722.335910779835	1002.622478515417	428.784024545858	927.077030422986	1420.291099408237	246.337441398760	1016.724246309998	1350.191772687889	416.293726883477	924.300696128426	1434.404351076936	580.733444294897	917.314058842547	1484.825463945633	398.081130317495	939.061457118420	935.754929251480	563.605078807033	945.423396884526	951.922066726625	288.116084518743	1016.058341132089	766.895301157975	539.280686601925	975.005757232410	645.230393115182	614.047043187291	1066.941869570283	610.265847748194	536.669671359200	1102.393362760998	525.019969120900	557.726842109604	953.065431643759	729.038337006110	318.543907889133	844.186049238491	631.227606398650	250.083551104258	904.563822024711	539.024985383454	316.711619460160	889.747227841256	470.904209738338	325.995769294436	855.426808175010	403.388388203008	315.775700030668	752.670030988140	302.379040350303	260.145664759747	782.963174114962	185.791484634532	333.644722646974	1080.950575605104	434.598434180693	568.275560863565	1019.327354335224	323.699263672043	629.189985071978	1086.341835055703	234.134107629238	581.631790669718	988.084090765539	48.803221884720	552.460404236881	1150.632423306257	122.708238521180	596.468002507032	1070.846040848452	46.693669030131	626.826190077518	1273.878185138740	85.770093912625	624.770786990539	638.588712876779	38.463577166365	371.729544503236	712.987005826432	34.912455850632	291.889462019388	796.530323267419	94.945373827083	320.213589291542	924.836743476596	41.839942643494	291.996158384053	1002.410920423989	1107.789031383092	86.905517928889	1249.380280613656	1075.986071898677	149.933461348911	783.972516967921	1122.589900300238	704.019797520857	745.652837056708	864.783673486927	722.989405714973	
22	51.202500000000	724.123607610961	1000.643550193104	431.057510125729	926.849141722639	1418.959459761972	248.665386839591	1016.979025227706	1349.174636610764	418.510830007503	924.324313603630	1433.206138203333	582.921672616080	917.084167052126	1483.349786733003	400.241989455229	940.861588625674	933.776143485804	565.698568964076	947.076966182874	950.594126219125	290.122448529447	1016.073708172684	762.704406214347	541.871252760909	971.792793269744	640.938000911166	614.976896477686	1064.223822505878	605.870090484481	538.308494941684	1097.859236750547	521.209837678782	557.885727653842	952.779983495339	727.115150083530	320.005046500117	842.572686822190	630.377287806262	251.379339339731	901.874599263376	537.467077252281	317.929284710568	886.448845476340	469.138797491359	326.971771264752	851.211665606081	402.012229572238	316.692937935747	747.224316872537	302.247190072248	260.858392850228	776.206573900962	185.149416109495	334.008602588531	1078.152634344024	430.736972827518	568.348104918733	1017.865462661116	318.582673043486	628.186411974457	1086.847666872058	230.383324466450	580.587866147856	991.241496892550	44.998101652904	550.499511872993	1153.311880686308	119.352421356500	594.447081900724	1073.903235763110	43.318130919487	624.945157884701	1276.777854380895	82.788021085511	622.754453660379	630.762772846075	38.386090493268	371.746372755255	705.216843197568	34.831853048166	291.962165984366	788.792130199150	94.849975341932	320.352410232827	917.114499570788	41.599658010896	291.992256794105	1003.454204648102	1107.560781198486	88.458646096180	1250.420024948292	1087.790382140460	153.562865422517	779.424657004237	1124.636659464210	706.833030349796	737.420561078656	867.288344276641	724.601948951437	
